<?xml version="1.0" encoding="UTF-8" standalone="no"?>
<svg width="717px" height="162px" viewBox="0 0 717 162" version="1.1" xmlns="http://www.w3.org/2000/svg" xmlns:xlink="http://www.w3.org/1999/xlink">
    <!-- Generator: Sketch 3.8.3 (29802) - http://www.bohemiancoding.com/sketch -->
    <title>logo</title>
    <desc>Created with Sketch.</desc>
    <defs>
        <polygon id="path-1" points="0.4218 19.57037 0.4218 0.74074 17.4101 0.74074 17.4101 19.57037"></polygon>
        <polygon id="path-3" points="0.0941 0.163 22.5429 0.163 54.6992 90.05926 87.4622 0.163 109.9109 0.163 65.6202 115.57037 43.7782 115.57037"></polygon>
        <path d="M0.6824,117.57037 L0.6824,11.8815 C20.0975,3.9852 38.2992,0.3407 56.5008,0.3407 L56.5008,19.77778 C44.9731,19.77778 33.4454,21.6 21.3109,24.63704 L21.3109,117.57037 L0.6824,117.57037 L0.6824,117.57037 Z" id="path-5"></path>
        <path d="M101.8134,72.40741 C102.4202,67.54815 102.4202,62.08148 102.4202,56.61481 C102.4202,39.60741 97.5664,26.24444 88.4655,15.9185 C79.3647,5.5926 67.2303,0.7333 51.4555,0.7333 C17.479,0.7333 0.4908,20.77778 0.4908,61.47407 C0.4908,73.01481 2.3109,82.73333 5.3445,90.62963 C8.3782,98.52593 12.6252,104.6 18.0857,108.85185 C23.5462,112.496296 29.0067,115.533333 34.4672,117.355556 C39.9277,119.177778 46.6017,119.785185 53.2756,119.785185 L53.8824,119.785185 C69.0504,119.785185 82.3983,117.355556 93.9261,112.496296 L93.9261,93.05926 C83.005,99.13333 69.6571,101.56296 53.8824,101.56296 C35.0739,101.56296 24.1529,91.84444 21.7261,71.8 C21.7261,71.8 21.1193,64.51111 21.1193,62.68889 L21.1193,52.97037 C22.3328,40.82222 24.7597,31.71111 29.6134,26.85185 C33.8605,21.99259 41.1412,19.563 50.8487,19.563 C56.3092,19.563 61.163,20.77778 64.8034,22.6 C68.4437,25.02963 71.4773,27.45926 73.9042,31.1037 C75.7244,34.74815 77.5445,38.39259 78.758,42.03704 C79.9714,45.68148 80.5782,49.32593 80.5782,52.97037 L30.8269,52.97037 L30.8269,72.40741 L101.8134,72.40741 L101.8134,72.40741 Z" id="path-7"></path>
        <path d="M101.6605,72.40741 C102.2672,67.54815 102.2672,62.08148 102.2672,56.61481 C102.2672,39.60741 97.4134,26.24444 88.3126,15.9185 C79.2118,5.5926 67.0773,0.7333 51.3025,0.7333 C17.3261,0.7333 0.3378,20.77778 0.3378,61.47407 C0.3378,73.01481 2.158,82.73333 5.1916,90.62963 C8.2252,98.52593 12.4723,104.6 17.9328,108.85185 C23.3933,112.496296 28.8538,115.533333 34.3143,117.355556 C39.7748,119.177778 46.4487,119.785185 53.1227,119.785185 L53.7294,119.785185 C68.8975,119.785185 82.2454,117.355556 93.7731,112.496296 L93.7731,93.05926 C82.8521,99.13333 69.5042,101.56296 53.7294,101.56296 C34.921,101.56296 24,91.84444 21.5731,71.8 C21.5731,71.8 20.9664,64.51111 20.9664,62.68889 L20.9664,52.97037 C22.1798,40.82222 24.6067,31.71111 29.4605,26.85185 C33.7076,21.99259 40.9882,19.563 50.6958,19.563 C56.1563,19.563 61.0101,20.77778 64.6504,22.6 C68.2908,25.02963 71.3244,27.45926 73.7513,31.1037 C75.5714,34.74815 77.3916,38.39259 78.605,42.03704 C79.8185,45.68148 80.4252,49.32593 80.4252,52.97037 L30.6739,52.97037 L30.6739,72.40741 L101.6605,72.40741 L101.6605,72.40741 Z" id="path-9"></path>
        <path d="M93.86218,71.88889 C90.82857,63.99259 86.58151,57.9185 81.12101,53.6667 C75.6605,49.4148 70.2,46.9852 64.13277,45.163 C58.67227,43.3407 52.60504,42.7333 45.93109,42.7333 C41.07731,42.7333 35.61681,43.3407 30.76303,43.9481 L30.76303,63.38519 C35.61681,62.17037 40.47059,61.563 45.93109,61.563 C50.78487,61.563 54.42521,62.17037 58.06555,62.77778 C61.70588,63.38519 64.7395,65.20741 67.77311,67.63704 C70.80672,70.06667 73.23361,74.31852 75.05378,79.78519 C76.87395,85.25185 77.48067,91.93333 77.48067,100.43704 C77.48067,109.54815 76.87395,116.83704 75.05378,122.3037 C73.23361,128.37778 70.80672,132.62963 67.77311,135.05926 C64.7395,137.48889 61.70588,139.31111 58.67227,140.52593 C55.63866,141.74074 51.99832,141.74074 48.35798,141.74074 C30.76303,141.74074 21.66218,136.27407 21.66218,124.73333 L21.66218,76.14074 L21.66218,65.81481 L21.66218,45.7704 L21.66218,38.4815 L21.66218,0.2148 L0.4268908,0.2148 L0.4268908,123.51852 C0.4268908,125.94815 0.4268908,128.37778 1.033613,130.80741 C1.640336,133.23704 2.853782,136.27407 4.67395,140.52593 C6.494118,144.17037 8.921008,147.81481 11.95462,150.85185 C14.98824,153.888889 19.84202,156.318519 25.90924,158.140741 C31.97647,159.962963 39.25714,161.177778 47.75126,161.177778 C51.99832,161.177778 56.24538,160.57037 60.49244,159.962963 C64.7395,159.355556 68.98655,157.533333 73.84034,155.103704 C78.69412,152.674074 82.94118,149.02963 85.97479,144.77778 C89.61513,140.52593 92.04202,134.45185 94.46891,127.16296 C96.8958,119.26667 98.10924,110.76296 98.10924,100.43704 C98.10924,90.11111 96.8958,80.39259 93.86218,71.88889 L93.86218,71.88889 Z" id="path-11"></path>
        <path d="M0.5664,19.5111 L0.5664,0.6815 L19.3748,0.6815 L19.3748,19.5111 L0.5664,19.5111 L0.5664,19.5111 Z M1.7798,155.57037 L18.7681,155.57037 L18.7681,40.163 L1.7798,40.163 L1.7798,155.57037 L1.7798,155.57037 Z" id="path-13"></path>
        <path d="M5.2168,89.62963 C2.1832,81.12593 0.363,71.40741 0.363,59.86667 C0.363,48.32593 2.1832,38 5.2168,30.1037 C8.2504,21.6 13.1042,15.5259 18.5647,11.8815 C24.0252,7.6296 30.0924,5.2 35.5529,3.3778 C41.0134,1.5556 47.6874,0.9481 54.3613,0.9481 C61.0353,0.9481 67.7092,1.5556 73.7765,3.3778 C79.8437,5.2 85.3042,8.237 90.7647,11.8815 C96.2252,16.1333 100.4723,22.20741 104.1126,30.1037 C107.1462,38.60741 108.9664,48.32593 108.9664,59.86667 C108.9664,71.40741 107.1462,81.73333 104.1126,89.62963 C101.079,98.13333 96.2252,104.20741 90.7647,107.85185 C85.3042,112.103704 79.237,114.533333 73.7765,116.355556 C67.7092,118.177778 61.642,118.785185 54.3613,118.785185 C47.6874,118.785185 41.0134,118.177778 35.5529,116.355556 C29.4857,114.533333 24.0252,111.496296 18.5647,107.85185 C12.4975,104.20741 8.2504,98.13333 5.2168,89.62963 L5.2168,89.62963 Z M25.8454,25.85185 C19.7782,33.14074 16.7445,44.07407 16.7445,59.86667 C16.7445,75.05185 19.7782,86.59259 25.8454,93.88148 C31.9126,101.17037 41.6202,104.81481 54.3613,104.81481 C67.7092,104.81481 76.8101,101.17037 82.8773,94.48889 C88.9445,87.2 91.9782,76.26667 91.9782,60.47407 C91.9782,44.68148 88.9445,33.74815 82.8773,26.45926 C76.8101,19.17037 67.1025,16.1333 54.3613,16.1333 C41.6202,14.9185 31.9126,18.563 25.8454,25.85185 L25.8454,25.85185 Z" id="path-15"></path>
    </defs>
    <g id="Page-1" stroke="none" stroke-width="1" fill="none" fill-rule="evenodd">
        <g id="logo">
            <g id="Group-3" transform="translate(523.000000, 141.000000)">
                <mask id="mask-2" fill="white">
                    <use xlink:href="#path-1"></use>
                </mask>
                <g id="Clip-2"></g>
                <polygon id="Fill-1" fill="#04274F" mask="url(#mask-2)" points="-4.5782 -4.25926 22.4101 -4.25926 22.4101 24.57037 -4.5782 24.57037"></polygon>
            </g>
            <g id="Group-6" transform="translate(223.000000, 45.000000)">
                <mask id="mask-4" fill="white">
                    <use xlink:href="#path-3"></use>
                </mask>
                <g id="Clip-5"></g>
                <polygon id="Fill-4" fill="#04274F" mask="url(#mask-4)" points="-4.9059 -4.837 114.9109 -4.837 114.9109 120.57037 -4.9059 120.57037"></polygon>
            </g>
            <g id="Group-9" transform="translate(456.000000, 43.000000)">
                <mask id="mask-6" fill="white">
                    <use xlink:href="#path-5"></use>
                </mask>
                <g id="Clip-8"></g>
                <polygon id="Fill-7" fill="#04274F" mask="url(#mask-6)" points="-4.3176 -4.6593 61.5008 -4.6593 61.5008 122.57037 -4.3176 122.57037"></polygon>
            </g>
            <g id="Group-12" transform="translate(114.000000, 42.000000)">
                <mask id="mask-8" fill="white">
                    <use xlink:href="#path-7"></use>
                </mask>
                <g id="Clip-11"></g>
                <polygon id="Fill-10" fill="#04274F" mask="url(#mask-8)" points="-4.5092 -4.2667 107.4202 -4.2667 107.4202 124.785185 -4.5092 124.785185"></polygon>
            </g>
            <g id="Group-15" transform="translate(335.000000, 42.000000)">
                <mask id="mask-10" fill="white">
                    <use xlink:href="#path-9"></use>
                </mask>
                <g id="Clip-14"></g>
                <polygon id="Fill-13" fill="#04274F" mask="url(#mask-10)" points="-4.6622 -4.2667 107.2672 -4.2667 107.2672 124.785185 -4.6622 124.785185"></polygon>
            </g>
            <g id="Group-18">
                <mask id="mask-12" fill="white">
                    <use xlink:href="#path-11"></use>
                </mask>
                <g id="Clip-17"></g>
                <polygon id="Fill-16" fill="#04274F" mask="url(#mask-12)" points="-4.573109 -4.7852 103.1092 -4.7852 103.1092 166.177778 -4.573109 166.177778"></polygon>
            </g>
            <g id="Group-21" transform="translate(572.000000, 5.000000)">
                <mask id="mask-14" fill="white">
                    <use xlink:href="#path-13"></use>
                </mask>
                <g id="Clip-20"></g>
                <polygon id="Fill-19" fill="#04274F" mask="url(#mask-14)" points="-4.4336 -4.3185 24.3748 -4.3185 24.3748 160.57037 -4.4336 160.57037"></polygon>
            </g>
            <g id="Group-24" transform="translate(608.000000, 43.000000)">
                <mask id="mask-16" fill="white">
                    <use xlink:href="#path-15"></use>
                </mask>
                <g id="Clip-23"></g>
                <polygon id="Fill-22" fill="#04274F" mask="url(#mask-16)" points="-4.637 -4.0519 113.9664 -4.0519 113.9664 123.785185 -4.637 123.785185"></polygon>
            </g>
        </g>
    </g>
</svg>