<?xml version="1.0" encoding="UTF-8" standalone="no"?>
<svg width="9px" height="5px" viewBox="0 0 9 5" version="1.1" xmlns="http://www.w3.org/2000/svg" xmlns:xlink="http://www.w3.org/1999/xlink">
    <!-- Generator: Sketch 3.7 (28169) - http://www.bohemiancoding.com/sketch -->
    <title></title>
    <desc>Created with Sketch.</desc>
    <defs></defs>
    <g id="Page-1" stroke="none" stroke-width="1" fill="none" fill-rule="evenodd">
        <path d="M8.39844751,0.749992549 C8.39844751,0.687492475 8.36719747,0.617179891 8.32032242,0.570304835 L7.92969695,0.17967937 C7.8828219,0.132804314 7.81250931,0.101554276 7.75000924,0.101554276 C7.68750916,0.101554276 7.61719658,0.132804314 7.57032152,0.17967937 L4.50000536,3.24999553 L1.4296892,0.17967937 C1.38281415,0.132804314 1.31250156,0.101554276 1.25000149,0.101554276 C1.17968891,0.101554276 1.11718883,0.132804314 1.07031378,0.17967937 L0.67968831,0.570304835 C0.632813254,0.617179891 0.601563217,0.687492475 0.601563217,0.749992549 C0.601563217,0.812492624 0.632813254,0.882805208 0.67968831,0.929680264 L4.32031765,4.5703096 C4.36719271,4.61718466 4.43750529,4.6484347 4.50000536,4.6484347 C4.56250544,4.6484347 4.63281802,4.61718466 4.67969308,4.5703096 L8.32032242,0.929680264 C8.36719747,0.882805208 8.39844751,0.812492624 8.39844751,0.749992549 L8.39844751,0.749992549 Z" id="" fill="#555555"></path>
    </g>
</svg>